<?xml version="1.0" encoding="UTF-8"?>
<svg width="717px" height="111px" viewBox="0 0 717 111" version="1.1" xmlns="http://www.w3.org/2000/svg" xmlns:xlink="http://www.w3.org/1999/xlink">
    <!-- Generator: Sketch 57.1 (83088) - https://sketch.com -->
    <title>XC_Logo_Dark</title>
    <desc>Created with Sketch.</desc>
    <g id="Booth" stroke="none" stroke-width="1" fill="none" fill-rule="evenodd">
        <g id="Back-Kiosk-V2" transform="translate(-133.000000, -154.000000)">
            <g id="XC_Logo_Dark" transform="translate(133.000000, 154.000000)">
                <path d="M184.968949,30.9949721 C178.057009,19.7600559 164.981879,12.7217412 150.551866,12.7217412 C126.958566,12.7217412 109.528455,29.6451583 109.528455,54.4949255 C109.528455,79.3497672 127.411891,96.1209497 150.551866,96.1209497 C166.484474,96.1209497 180.308355,87.7378957 186.92487,75.0110801 L200,78.6038175 C191.132138,97.1713687 172.647664,109 150.551866,109 C120.347145,109 96,86.0886872 96,54.4949255 C96,22.9062384 120.347145,0 150.551866,0 C171.292781,0 189.028504,10.7782123 198.344598,27.3971601 L184.968949,30.9949721" id="Fill-1" fill="#34424C"></path>
                <polyline id="Fill-2" fill="#34424C" points="286 96.8447274 286 109 215 109 215 4 285.105233 4 285.105233 16.1501888 227.976646 16.1501888 227.976646 47.7966011 273.91812 47.7966011 273.91812 59.6468481 227.976646 59.6468481 227.976646 96.8447274 286 96.8447274"></polyline>
                <polyline id="Fill-3" fill="#34424C" points="394 4 394 109 381.822162 109 322.705028 30.1000291 320.625885 26.7955844 320.922906 31.1472838 320.922906 109 308 109 308 4 320.031845 4 379.300006 82.4475162 381.228122 85.8993899 380.931101 81.5476905 380.931101 4 394 4"></polyline>
                <polyline id="Fill-4" fill="#34424C" points="493 4 493 16.1501888 457.964389 16.1501888 457.964389 109 444.887825 109 444.887825 16.1501888 410 16.1501888 410 4 493 4"></polyline>
                <polygon id="Fill-5" fill="#34424C" points="510 4 524 4 524 109 510 109"></polygon>
                <path d="M704.775265,4 L669.752915,61.9126849 L668.409204,64.9051953 L666.918999,61.9126849 L632.043144,4 L619.671914,4 L619.671914,65.8029484 C619.671914,86.1570914 609.088931,98.7256352 588.968633,98.7256352 C568.848336,98.7256352 558.113807,86.1570914 558.113807,65.8029484 L558.113807,4 L545,4 L545,65.2044463 C545,93.9376185 561.245763,111 588.968633,111 C616.539957,111 632.785721,93.9376185 632.785721,65.2044463 L632.785721,31.536168 L632.492731,27.1944918 L634.579018,31.536168 L665.575289,83.0124194 L671.24312,83.0124194 L702.244442,31.536168 L704.330729,27.0423303 L704.032688,31.536168 L704.032688,108.758153 L717,108.758153 L717,4 L704.775265,4" id="Fill-6" fill="#34424C"></path>
                <polyline id="Fill-7" fill="#34424C" points="44 36.0038484 19.99182 3 4 3 36.00409 47 44 36.0038484"></polyline>
                <polyline id="Fill-8" fill="#34424C" points="52 72.9616368 79.6457863 110 96 110 60.1797219 62 52 72.9616368"></polyline>
                <polyline id="Fill-9" fill="#379FB1" points="0 109 15.6357045 109 91 4 75.3692941 4 0 109"></polyline>
            </g>
        </g>
    </g>
</svg>